# xmcd
#
# Track frame offsets: 
#        150
#        25455
#        50211
#        65960
#        83959
#        107584
#        133458
#        156520
#        173395
#        191818
#        216653
#        231260
#        255043
#        269862
#        293487
#        314861
#        340173
#
# Disc length: 4754 seconds
#
# Revision: 0
# Processed by: cddbd v1.5.2PL0 Copyright (c) Steve Scherf et al.
# Submitted via: ExactAudioCopy v0.99pb5
#
DISCID=18129011
DTITLE=Various Artist - Mos The Annual 2010 One Year One Album (Pt Edition)
DYEAR=1900
DGENRE=
TTITLE0=Edward Maya And Vika Jigulina - Stereo Love (Massivedrum And D
TTITLE0=j Fernando Hit Mix 2010)
TTITLE1=Ralvero Feat Dadz N Effects - Loose Control (Original Mix) (Ra
TTITLE1=lf Baartmans S Bruinsma D Middelkamp)
TTITLE2=Jerry Ropero Java And Caesars Scissors - Organ Of Love What Lo
TTITLE2=ve (Juan Magan Remix) (Rob White)
TTITLE3=Michel Cleis Feat Toto La Momposina - La Mezcla (Copyright Mai
TTITLE3=n Mix) (Toto La Momposina Jose Barros Michel Cleis)
TTITLE4=Celeda - The Underground (Richard Grey Remix) (Peter Rauhoter 
TTITLE4=Victoria Sharpe)
TTITLE5=Balearic Soul Vs Ricky L - Babylonia Born Again 09 (Balearic S
TTITLE5=oul Club Mix) (D R)
TTITLE6=Daddys Groove Vs Bob Sinclair - Kiss My Agony (Lene Lovich Bob
TTITLE6=Sinclair A Wisniak)
TTITLE7=Massivedrum Feat Pm - Evolution (Dave Kurtis Remix) (Ricardo R
TTITLE7=odrigues Pedro Miguel)
TTITLE8=Sidekick - Deep Fear (Phobia Club Mix) (M Zotti G Esposito A C
TTITLE8=avaliere V Martino)
TTITLE9=Tommy Guitar And P Carrilho Feat Karina May La Mouche And Guit
TTITLE9=o - Emotion Beat (Massivedrum Remix) (Karina May Tommy Guitar 
TTITLE9=And P Carrilho)
TTITLE10=Ian Carey Feat Craig Smart - Sos (Bassjackers And Ralvero Rem
TTITLE10=ix) (L Carey J Vaughn C Smart)
TTITLE11=Chris Kaeser - The Rhythm Of The Beat (Original Mix) ( Christ
TTITLE11=ophe Chris Kaeser)
TTITLE12=Deep Swing - In The Music 2009 (Nari And Milani Night Mix) (E
TTITLE12=Wikman J Donaldson)
TTITLE13=Eddie Thoneick Feat Michael Feiner - Dont Let Me Down (David 
TTITLE13=Tort Mix) (Eddie Thoneick Michael Feiner)
TTITLE14=Hardwell Feat I Fan - Feel So High (Original Mix) (Ivan Perot
TTITLE14=i R Van De Corput)
TTITLE15=Edx - Shy Shy (Original Mix) (Jennifer Karr Alexander Perls)
TTITLE16=Pedro Cazanova Invites Filipa - My First Luv (Original Mix) (
TTITLE16=Pedro Cazanova)
EXTD=
EXTT0=
EXTT1=
EXTT2=
EXTT3=
EXTT4=
EXTT5=
EXTT6=
EXTT7=
EXTT8=
EXTT9=
EXTT10=
EXTT11=
EXTT12=
EXTT13=
EXTT14=
EXTT15=
EXTT16=
PLAYORDER=
